999
FreeCAD v0.20 29177 +426 (Git)
  0
SECTION
  2
HEADER
  9
$ACADVER
  1
AC1014
  9
$ACADMAINTVER
 70
     9
  9
$DWGCODEPAGE
  3
ANSI_1252
  9
$TEXTSTYLE
  7
STANDARD
  9
$DIMSTYLE
  2
STANDARD
  9
$DIMTXSTY
  7
STANDARD
  9
$CMLSTYLE
  2
STANDARD
  9
$LUNITS
 70
2
  9
$INSUNITS
 70
4
  9
$PEXTMAX
 10
50
 20
50
 30
50
  9
$PEXTMIN
 10
0
 20
0
 30
0
  9
$HANDSEED
  5
FFFF
  0
ENDSEC
  0
SECTION
  2
CLASSES
  0
CLASS
  1
ACDBDICTIONARYWDFLT
  2
AcDbDictionaryWithDefault
  3
ObjectDBX Classes
 90
        0
280
     0
281
     0
  0
CLASS
  1
XRECORD
  2
AcDbXrecord
  3
ObjectDBX Classes
 90
        0
280
     0
281
     0
  0
CLASS
  1
LWPOLYLINE
  2
AcDbPolyline
  3
ObjectDBX Classes
 90
        0
280
     0
281
     1
  0
ENDSEC
  0
SECTION
  2
TABLES
  0
TABLE
  2
VPORT
  5
20
330
0
100
AcDbSymbolTable
 70
     1
  0
VPORT
  5
21
330
20
100
AcDbSymbolTableRecord
100
AcDbViewportTableRecord
  2
*ACTIVE
 70
     0
  0
ENDTAB
  0
TABLE
  2
LTYPE
  5
22
330
0
100
AcDbSymbolTable
 70
     1
  0
LTYPE
  5
23
330
21
100
AcDbSymbolTableRecord
100
AcDbLinetypeTableRecord
  2
BYBLOCK
 70
     0
  3

 72
    65
 73
     0
 40
0.0
  0
LTYPE
  5
24
330
21
100
AcDbSymbolTableRecord
100
AcDbLinetypeTableRecord
  2
BYLAYER
 70
     0
  3

 72
    65
 73
     0
 40
0.0
  0
LTYPE
  5
25
330
21
100
AcDbSymbolTableRecord
100
AcDbLinetypeTableRecord
  2
CONTINUOUS
 70
     0
  3
Solid line
 72
    65
 73
     0
 40
0.0
  0
ENDTAB
  0
TABLE
  2
LAYER
  5
A42
330
0
100
AcDbSymbolTable
 70
10
  0
LAYER
  5
A43
330
A42
100
AcDbSymbolTableRecord
100
AcDbLayerTableRecord
  2
0
 70
   0
 62
   7
  6
CONTINUOUS
  0
LAYER
  5
A44
330
A42
100
AcDbSymbolTableRecord
100
AcDbLayerTableRecord
  2
View003
 70
    0
 62
    7
  6
CONTINUOUS
  0
LAYER
  5
A45
330
A42
100
AcDbSymbolTableRecord
100
AcDbLayerTableRecord
  2
Dimension009
 70
    0
 62
    7
  6
CONTINUOUS
  0
LAYER
  5
A46
330
A42
100
AcDbSymbolTableRecord
100
AcDbLayerTableRecord
  2
Dimension010
 70
    0
 62
    7
  6
CONTINUOUS
  0
LAYER
  5
A47
330
A42
100
AcDbSymbolTableRecord
100
AcDbLayerTableRecord
  2
Dimension011
 70
    0
 62
    7
  6
CONTINUOUS
  0
LAYER
  5
A48
330
A42
100
AcDbSymbolTableRecord
100
AcDbLayerTableRecord
  2
Dimension012
 70
    0
 62
    7
  6
CONTINUOUS
  0
LAYER
  5
A49
330
A42
100
AcDbSymbolTableRecord
100
AcDbLayerTableRecord
  2
Annotation009
 70
    0
 62
    7
  6
CONTINUOUS
  0
LAYER
  5
A4A
330
A42
100
AcDbSymbolTableRecord
100
AcDbLayerTableRecord
  2
Annotation010
 70
    0
 62
    7
  6
CONTINUOUS
  0
LAYER
  5
A4B
330
A42
100
AcDbSymbolTableRecord
100
AcDbLayerTableRecord
  2
Annotation011
 70
    0
 62
    7
  6
CONTINUOUS
  0
LAYER
  5
A4C
330
A42
100
AcDbSymbolTableRecord
100
AcDbLayerTableRecord
  2
Annotation012
 70
    0
 62
    7
  6
CONTINUOUS
  0
ENDTAB
  0
TABLE
  2
STYLE
  5
70
330
0
100
AcDbSymbolTable
 70
     2
  0
STYLE
  5
71
330
70
100
AcDbSymbolTableRecord
100
AcDbTextStyleTableRecord
  2
STANDARD
 70
     0
 40
0.0
 41
1.0
 50
0.0
 71
     0
 42
2.5
  3
arial.ttf
  4

  0
STYLE
  5
72
330
70
100
AcDbSymbolTableRecord
100
AcDbTextStyleTableRecord
  2
ANNOTATIVE
 70
     0
 40
0.0
 41
1.0
 50
0.0
 71
     0
 42
2.5
  3
arial.ttf
  4

  0
ENDTAB
  0
TABLE
  2
VIEW
  5
73
330
0
100
AcDbSymbolTable
 70
     0
  0
ENDTAB
  0
TABLE
  2
UCS
  5
74
330
0
100
AcDbSymbolTable
 70
     0
  0
ENDTAB
  0
TABLE
  2
APPID
  5
75
330
0
100
AcDbSymbolTable
 70
     2
  0
APPID
  5
76
330
75
100
AcDbSymbolTableRecord
100
AcDbRegAppTableRecord
  2
ACAD
 70
     0
  0
APPID
  5
77
330
75
100
AcDbSymbolTableRecord
100
AcDbRegAppTableRecord
  2
ACADANNOTATIVE
 70
     0
  0
ENDTAB
  0
TABLE
  2
DIMSTYLE
  5
78
330
0
100
AcDbSymbolTable
 70
     2
  0
DIMSTYLE
105
79
330
78
100
AcDbSymbolTableRecord
100
AcDbDimStyleTableRecord
  2
STANDARD
 70
     0
  3

  4

  5

  6

  7

 40
0.0
 41
2.5
 42
0.625
 43
3.75
 44
1.25
 45
0.0
 46
0.0
 47
0.0
 48
0.0
140
2.5
141
2.5
142
0.0
143
0.03937007874016
144
1.0
145
0.0
146
1.0
147
0.625
 71
     0
 72
     0
 73
     0
 74
     0
 75
     0
 76
     0
 77
     1
 78
     8
170
     0
171
     3
172
     1
173
     0
174
     0
175
     0
176
     0
177
     0
178
     0
270
     2
271
     2
272
     2
273
     2
274
     3
340
71
275
     0
280
     0
281
     0
282
     0
283
     0
284
     8
285
     0
286
     0
287
     3
288
     0
  0
ENDTAB
  0
TABLE
  2
BLOCK_RECORD
  5
A01
330
0
100
AcDbSymbolTable
  70
5
  0
BLOCK_RECORD
  5
A02
330
A01
100
AcDbSymbolTableRecord
100
AcDbBlockTableRecord
  2
*MODEL_SPACE
  0
BLOCK_RECORD
  5
A03
330
A01
100
AcDbSymbolTableRecord
100
AcDbBlockTableRecord
  2
*PAPER_SPACE
  0
BLOCK_RECORD
  5
A17
330
A01
100
AcDbSymbolTableRecord
100
AcDbBlockTableRecord
  2
*Dimension009
  0
BLOCK_RECORD
  5
A21
330
A01
100
AcDbSymbolTableRecord
100
AcDbBlockTableRecord
  2
*Dimension010
  0
BLOCK_RECORD
  5
A2B
330
A01
100
AcDbSymbolTableRecord
100
AcDbBlockTableRecord
  2
*Dimension011
  0
BLOCK_RECORD
  5
A35
330
A01
100
AcDbSymbolTableRecord
100
AcDbBlockTableRecord
  2
*Dimension012
  0
ENDTAB
  0
ENDSEC
  0
SECTION
  2
BLOCKS
  0
BLOCK
  5
A04
330
A02
100
AcDbEntity
  8
0
100
AcDbBlockBegin
  2
*MODEL_SPACE
 70
   0
 10
0
 20
0
 30
0
  3
*MODEL_SPACE
  1
 
  0
ENDBLK
  5
A05
330
A02
100
AcDbEntity
  8
0
100
AcDbBlockEnd
  0
BLOCK
  5
A06
330
A03
100
AcDbEntity
 67
1
  8
0
100
AcDbBlockBegin
  2
*PAPER_SPACE
 70
   0
 10
0
 20
0
 30
0
  3
*PAPER_SPACE
  1
 
  0
ENDBLK
  5
A07
330
A03
100
AcDbEntity
 67
    1
  8
0
100
AcDbBlockEnd
  0
BLOCK
  5
A18
330
A17
100
AcDbEntity
  8
Dimension009
100
AcDbBlockBegin
  2
*Dimension009
 70
   1
 10
0
 20
0
 30
0
  3
*Dimension009
  1
 
  0
LINE
  5
A19
330
A17
100
AcDbEntity
  8
Dimension009
100
AcDbLine
 10
297.696
 20
208.355
 30
0
 11
302.57
 21
208.355
 31
0
  0
LINE
  5
A1A
330
A17
100
AcDbEntity
  8
Dimension009
100
AcDbLine
 10
297.696
 20
240.105
 30
0
 11
302.57
 21
240.105
 31
0
  0
LINE
  5
A1B
330
A17
100
AcDbEntity
  8
Dimension009
100
AcDbLine
 10
302.57
 20
240.105
 30
0
 11
302.57
 21
208.355
 31
0
  0
TEXT
  5
A1C
330
A17
100
AcDbEntity
  8
Dimension009
100
AcDbText
 10
297.57
 20
227.424
 30
0
 40
3.5
  1
1.25 in
  7
STANDARD
 72
1
 11
302.57
 21
227.424
 31
0
100
AcDbText
  0
SOLID
  5
A1D
330
A17
100
AcDbEntity
  8
0
 62
     0
100
AcDbTrace
 10
302.986
 20
245.105
 30
0
 11
302.153
 21
245.105
 31
0
 12
302.57
 22
240.105
 32
0
 13
302.57
 23
240.105
 33
0
  0
SOLID
  5
A1E
330
A17
100
AcDbEntity
  8
0
 62
     0
100
AcDbTrace
 10
302.986
 20
203.355
 30
0
 11
302.153
 21
203.355
 31
0
 12
302.57
 22
208.355
 32
0
 13
302.57
 23
208.355
 33
0
  0
ENDBLK
  5
A1F
330
A17
100
AcDbEntity
  8
Dimension009
100
AcDbBlockEnd
  0
BLOCK
  5
A22
330
A21
100
AcDbEntity
  8
Dimension010
100
AcDbBlockBegin
  2
*Dimension010
 70
   1
 10
0
 20
0
 30
0
  3
*Dimension010
  1
 
  0
LINE
  5
A23
330
A21
100
AcDbEntity
  8
Dimension010
100
AcDbLine
 10
297.696
 20
208.355
 30
0
 11
297.696
 21
209.714
 31
0
  0
LINE
  5
A24
330
A21
100
AcDbEntity
  8
Dimension010
100
AcDbLine
 10
310.396
 20
208.355
 30
0
 11
310.396
 21
209.714
 31
0
  0
LINE
  5
A25
330
A21
100
AcDbEntity
  8
Dimension010
100
AcDbLine
 10
310.396
 20
209.714
 30
0
 11
297.696
 21
209.714
 31
0
  0
TEXT
  5
A26
330
A21
100
AcDbEntity
  8
Dimension010
100
AcDbText
 10
301.038
 20
204.714
 30
0
 40
3.5
  1
0.5 in
  7
STANDARD
 72
1
 11
301.038
 21
209.714
 31
0
100
AcDbText
  0
SOLID
  5
A27
330
A21
100
AcDbEntity
  8
0
 62
     0
100
AcDbTrace
 10
315.396
 20
210.131
 30
0
 11
315.396
 21
209.297
 31
0
 12
310.396
 22
209.714
 32
0
 13
310.396
 23
209.714
 33
0
  0
SOLID
  5
A28
330
A21
100
AcDbEntity
  8
0
 62
     0
100
AcDbTrace
 10
292.696
 20
210.131
 30
0
 11
292.696
 21
209.297
 31
0
 12
297.696
 22
209.714
 32
0
 13
297.696
 23
209.714
 33
0
  0
ENDBLK
  5
A29
330
A21
100
AcDbEntity
  8
Dimension010
100
AcDbBlockEnd
  0
BLOCK
  5
A2C
330
A2B
100
AcDbEntity
  8
Dimension011
100
AcDbBlockBegin
  2
*Dimension011
 70
   1
 10
0
 20
0
 30
0
  3
*Dimension011
  1
 
  0
LINE
  5
A2D
330
A2B
100
AcDbEntity
  8
Dimension011
100
AcDbLine
 10
56.3955
 20
87.7054
 30
0
 11
327.5
 21
87.7054
 31
0
  0
LINE
  5
A2E
330
A2B
100
AcDbEntity
  8
Dimension011
100
AcDbLine
 10
56.3955
 20
240.105
 30
0
 11
327.5
 21
240.105
 31
0
  0
LINE
  5
A2F
330
A2B
100
AcDbEntity
  8
Dimension011
100
AcDbLine
 10
327.5
 20
240.105
 30
0
 11
327.5
 21
87.7054
 31
0
  0
TEXT
  5
A30
330
A2B
100
AcDbEntity
  8
Dimension011
100
AcDbText
 10
322.5
 20
174.615
 30
0
 40
3.5
  1
6 in
  7
STANDARD
 72
1
 11
327.5
 21
174.615
 31
0
100
AcDbText
  0
SOLID
  5
A31
330
A2B
100
AcDbEntity
  8
0
 62
     0
100
AcDbTrace
 10
327.917
 20
245.105
 30
0
 11
327.083
 21
245.105
 31
0
 12
327.5
 22
240.105
 32
0
 13
327.5
 23
240.105
 33
0
  0
SOLID
  5
A32
330
A2B
100
AcDbEntity
  8
0
 62
     0
100
AcDbTrace
 10
327.917
 20
82.7054
 30
0
 11
327.083
 21
82.7054
 31
0
 12
327.5
 22
87.7054
 32
0
 13
327.5
 23
87.7054
 33
0
  0
ENDBLK
  5
A33
330
A2B
100
AcDbEntity
  8
Dimension011
100
AcDbBlockEnd
  0
BLOCK
  5
A36
330
A35
100
AcDbEntity
  8
Dimension012
100
AcDbBlockBegin
  2
*Dimension012
 70
   1
 10
0
 20
0
 30
0
  3
*Dimension012
  1
 
  0
LINE
  5
A37
330
A35
100
AcDbEntity
  8
Dimension012
100
AcDbLine
 10
310.396
 20
87.7054
 30
0
 11
310.396
 21
78.2627
 31
0
  0
LINE
  5
A38
330
A35
100
AcDbEntity
  8
Dimension012
100
AcDbLine
 10
56.3955
 20
87.7054
 30
0
 11
56.3955
 21
78.2627
 31
0
  0
LINE
  5
A39
330
A35
100
AcDbEntity
  8
Dimension012
100
AcDbLine
 10
56.3955
 20
78.2627
 30
0
 11
310.396
 21
78.2627
 31
0
  0
TEXT
  5
A3A
330
A35
100
AcDbEntity
  8
Dimension012
100
AcDbText
 10
184.974
 20
83.2627
 30
0
 40
3.5
  1
10 in
  7
STANDARD
 72
1
 11
184.974
 21
78.2627
 31
0
100
AcDbText
  0
SOLID
  5
A3B
330
A35
100
AcDbEntity
  8
0
 62
     0
100
AcDbTrace
 10
51.3955
 20
77.8461
 30
0
 11
51.3955
 21
78.6794
 31
0
 12
56.3955
 22
78.2627
 32
0
 13
56.3955
 23
78.2627
 33
0
  0
SOLID
  5
A3C
330
A35
100
AcDbEntity
  8
0
 62
     0
100
AcDbTrace
 10
315.396
 20
77.8461
 30
0
 11
315.396
 21
78.6794
 31
0
 12
310.396
 22
78.2627
 32
0
 13
310.396
 23
78.2627
 33
0
  0
ENDBLK
  5
A3D
330
A35
100
AcDbEntity
  8
Dimension012
100
AcDbBlockEnd
  0
ENDSEC
  0
SECTION
  2
ENTITIES
  0
LINE
  5
A08
330
A02
100
AcDbEntity
  8
View003
100
AcDbLine
 10
215.819
 20
194.036
 30
0
 11
215.819
 21
222.675
 31
0
  0
ARC
  5
A09
330
A02
100
AcDbEntity
  8
View003
100
AcDbCircle
 10
218.2
 20
222.675
 30
0
 40
2.38125
100
AcDbArc
 50
90
 51
180
  0
LINE
  5
A0A
330
A02
100
AcDbEntity
  8
View003
100
AcDbLine
 10
218.2
 20
225.056
 30
0
 11
280.366
 21
225.056
 31
0
  0
ARC
  5
A0B
330
A02
100
AcDbEntity
  8
View003
100
AcDbCircle
 10
280.366
 20
222.675
 30
0
 40
2.38125
100
AcDbArc
 50
0
 51
90
  0
LINE
  5
A0C
330
A02
100
AcDbEntity
  8
View003
100
AcDbLine
 10
282.748
 20
222.675
 30
0
 11
282.748
 21
194.036
 31
0
  0
ARC
  5
A0D
330
A02
100
AcDbEntity
  8
View003
100
AcDbCircle
 10
280.366
 20
194.036
 30
0
 40
2.38125
100
AcDbArc
 50
-90
 51
0
  0
LINE
  5
A0E
330
A02
100
AcDbEntity
  8
View003
100
AcDbLine
 10
280.366
 20
191.655
 30
0
 11
218.2
 21
191.655
 31
0
  0
ARC
  5
A0F
330
A02
100
AcDbEntity
  8
View003
100
AcDbCircle
 10
218.2
 20
194.036
 30
0
 40
2.38125
100
AcDbArc
 50
180
 51
-90
  0
CIRCLE
  5
A10
330
A02
100
AcDbEntity
  8
View003
100
AcDbCircle
 10
200.871
 20
208.355
 40
2.38125
  0
CIRCLE
  5
A11
330
A02
100
AcDbEntity
  8
View003
100
AcDbCircle
 10
297.696
 20
208.355
 40
2.38125
  0
LINE
  5
A12
330
A02
100
AcDbEntity
  8
View003
100
AcDbLine
 10
56.3955
 20
240.105
 30
0
 11
310.396
 21
240.105
 31
0
  0
LINE
  5
A13
330
A02
100
AcDbEntity
  8
View003
100
AcDbLine
 10
310.396
 20
240.105
 30
0
 11
310.396
 21
87.7054
 31
0
  0
LINE
  5
A14
330
A02
100
AcDbEntity
  8
View003
100
AcDbLine
 10
310.396
 20
87.7054
 30
0
 11
56.3955
 21
87.7054
 31
0
  0
LINE
  5
A15
330
A02
100
AcDbEntity
  8
View003
100
AcDbLine
 10
56.3955
 20
87.7054
 30
0
 11
56.3955
 21
240.105
 31
0
  0
DIMENSION
  5
A16
330
A02
100
AcDbEntity
  8
Dimension009
100
AcDbDimension
  2
*Dimension009
 10
302.57
 20
227.424
 30
0
 11
297.57
 21
227.424
 31
0
 70
32
  1
1.25 in
  3
STANDARD
100
AcDbAlignedDimension
 13
297.696
 23
240.105
 33
0
 14
297.696
 24
208.355
 34
0
 50
90
100
AcDbRotatedDimension
  0
DIMENSION
  5
A20
330
A02
100
AcDbEntity
  8
Dimension010
100
AcDbDimension
  2
*Dimension010
 10
301.038
 20
209.714
 30
0
 11
301.038
 21
204.714
 31
0
 70
32
  1
0.5 in
  3
STANDARD
100
AcDbAlignedDimension
 13
310.396
 23
208.355
 33
0
 14
297.696
 24
208.355
 34
0
100
AcDbRotatedDimension
  0
DIMENSION
  5
A2A
330
A02
100
AcDbEntity
  8
Dimension011
100
AcDbDimension
  2
*Dimension011
 10
327.5
 20
174.615
 30
0
 11
322.5
 21
174.615
 31
0
 70
32
  1
6 in
  3
STANDARD
100
AcDbAlignedDimension
 13
56.3955
 23
240.105
 33
0
 14
56.3955
 24
87.7054
 34
0
 50
90
100
AcDbRotatedDimension
  0
DIMENSION
  5
A34
330
A02
100
AcDbEntity
  8
Dimension012
100
AcDbDimension
  2
*Dimension012
 10
184.974
 20
78.2627
 30
0
 11
184.974
 21
83.2627
 31
0
 70
32
  1
10 in
  3
STANDARD
100
AcDbAlignedDimension
 13
56.3955
 23
87.7054
 33
0
 14
310.396
 24
87.7054
 34
0
100
AcDbRotatedDimension
  0
TEXT
  5
A3E
330
A02
100
AcDbEntity
  8
Annotation009
100
AcDbText
 10
184.649
 20
147.907
 30
0
 40
7.62
  1
Bottom view of box
  7
STANDARD
 72
1
 11
184.649
 21
147.907
 31
0
100
AcDbText
  0
TEXT
  5
A3F
330
A02
100
AcDbEntity
  8
Annotation010
100
AcDbText
 10
181.493
 20
89.8252
 30
0
 40
5.0038
  1
Rear
  7
STANDARD
 72
1
 11
181.493
 21
89.8252
 31
0
100
AcDbText
  0
TEXT
  5
A40
330
A02
100
AcDbEntity
  8
Annotation011
100
AcDbText
 10
181.177
 20
233.136
 30
0
 40
5.0038
  1
Front
  7
STANDARD
 72
1
 11
181.177
 21
233.136
 31
0
100
AcDbText
  0
TEXT
  5
A41
330
A02
100
AcDbEntity
  8
Annotation012
100
AcDbText
 10
39.1284
 20
246.394
 30
0
 40
5.0038
  1
Hinge Corner
  7
STANDARD
 72
1
 11
39.1284
 21
246.394
 31
0
100
AcDbText
  0
ENDSEC
  0
SECTION
  2
OBJECTS
  0
DICTIONARY
  5
F000
330
0
100
AcDbDictionary
  3
ACAD_GROUP
350
F001
  0
DICTIONARY
  5
F001
330
F000
100
AcDbDictionary
  0
ENDSEC
  0
EOF