999
FreeCAD v0.20 29177 +426 (Git)
  0
SECTION
  2
HEADER
  9
$ACADVER
  1
AC1014
  9
$ACADMAINTVER
 70
     9
  9
$DWGCODEPAGE
  3
ANSI_1252
  9
$TEXTSTYLE
  7
STANDARD
  9
$DIMSTYLE
  2
STANDARD
  9
$DIMTXSTY
  7
STANDARD
  9
$CMLSTYLE
  2
STANDARD
  9
$LUNITS
 70
2
  9
$INSUNITS
 70
4
  9
$PEXTMAX
 10
50
 20
50
 30
50
  9
$PEXTMIN
 10
0
 20
0
 30
0
  9
$HANDSEED
  5
FFFF
  0
ENDSEC
  0
SECTION
  2
CLASSES
  0
CLASS
  1
ACDBDICTIONARYWDFLT
  2
AcDbDictionaryWithDefault
  3
ObjectDBX Classes
 90
        0
280
     0
281
     0
  0
CLASS
  1
XRECORD
  2
AcDbXrecord
  3
ObjectDBX Classes
 90
        0
280
     0
281
     0
  0
CLASS
  1
LWPOLYLINE
  2
AcDbPolyline
  3
ObjectDBX Classes
 90
        0
280
     0
281
     1
  0
ENDSEC
  0
SECTION
  2
TABLES
  0
TABLE
  2
VPORT
  5
20
330
0
100
AcDbSymbolTable
 70
     1
  0
VPORT
  5
21
330
20
100
AcDbSymbolTableRecord
100
AcDbViewportTableRecord
  2
*ACTIVE
 70
     0
  0
ENDTAB
  0
TABLE
  2
LTYPE
  5
22
330
0
100
AcDbSymbolTable
 70
     1
  0
LTYPE
  5
23
330
21
100
AcDbSymbolTableRecord
100
AcDbLinetypeTableRecord
  2
BYBLOCK
 70
     0
  3

 72
    65
 73
     0
 40
0.0
  0
LTYPE
  5
24
330
21
100
AcDbSymbolTableRecord
100
AcDbLinetypeTableRecord
  2
BYLAYER
 70
     0
  3

 72
    65
 73
     0
 40
0.0
  0
LTYPE
  5
25
330
21
100
AcDbSymbolTableRecord
100
AcDbLinetypeTableRecord
  2
CONTINUOUS
 70
     0
  3
Solid line
 72
    65
 73
     0
 40
0.0
  0
ENDTAB
  0
TABLE
  2
LAYER
  5
A42
330
0
100
AcDbSymbolTable
 70
9
  0
LAYER
  5
A43
330
A42
100
AcDbSymbolTableRecord
100
AcDbLayerTableRecord
  2
0
 70
   0
 62
   7
  6
CONTINUOUS
  0
LAYER
  5
A44
330
A42
100
AcDbSymbolTableRecord
100
AcDbLayerTableRecord
  2
View
 70
    0
 62
    7
  6
CONTINUOUS
  0
LAYER
  5
A45
330
A42
100
AcDbSymbolTableRecord
100
AcDbLayerTableRecord
  2
Dimension
 70
    0
 62
    7
  6
CONTINUOUS
  0
LAYER
  5
A46
330
A42
100
AcDbSymbolTableRecord
100
AcDbLayerTableRecord
  2
Dimension001
 70
    0
 62
    7
  6
CONTINUOUS
  0
LAYER
  5
A47
330
A42
100
AcDbSymbolTableRecord
100
AcDbLayerTableRecord
  2
Dimension002
 70
    0
 62
    7
  6
CONTINUOUS
  0
LAYER
  5
A48
330
A42
100
AcDbSymbolTableRecord
100
AcDbLayerTableRecord
  2
Dimension003
 70
    0
 62
    7
  6
CONTINUOUS
  0
LAYER
  5
A49
330
A42
100
AcDbSymbolTableRecord
100
AcDbLayerTableRecord
  2
Dimension004
 70
    0
 62
    7
  6
CONTINUOUS
  0
LAYER
  5
A4A
330
A42
100
AcDbSymbolTableRecord
100
AcDbLayerTableRecord
  2
Annotation
 70
    0
 62
    7
  6
CONTINUOUS
  0
LAYER
  5
A4B
330
A42
100
AcDbSymbolTableRecord
100
AcDbLayerTableRecord
  2
Annotation001
 70
    0
 62
    7
  6
CONTINUOUS
  0
ENDTAB
  0
TABLE
  2
STYLE
  5
70
330
0
100
AcDbSymbolTable
 70
     2
  0
STYLE
  5
71
330
70
100
AcDbSymbolTableRecord
100
AcDbTextStyleTableRecord
  2
STANDARD
 70
     0
 40
0.0
 41
1.0
 50
0.0
 71
     0
 42
2.5
  3
arial.ttf
  4

  0
STYLE
  5
72
330
70
100
AcDbSymbolTableRecord
100
AcDbTextStyleTableRecord
  2
ANNOTATIVE
 70
     0
 40
0.0
 41
1.0
 50
0.0
 71
     0
 42
2.5
  3
arial.ttf
  4

  0
ENDTAB
  0
TABLE
  2
VIEW
  5
73
330
0
100
AcDbSymbolTable
 70
     0
  0
ENDTAB
  0
TABLE
  2
UCS
  5
74
330
0
100
AcDbSymbolTable
 70
     0
  0
ENDTAB
  0
TABLE
  2
APPID
  5
75
330
0
100
AcDbSymbolTable
 70
     2
  0
APPID
  5
76
330
75
100
AcDbSymbolTableRecord
100
AcDbRegAppTableRecord
  2
ACAD
 70
     0
  0
APPID
  5
77
330
75
100
AcDbSymbolTableRecord
100
AcDbRegAppTableRecord
  2
ACADANNOTATIVE
 70
     0
  0
ENDTAB
  0
TABLE
  2
DIMSTYLE
  5
78
330
0
100
AcDbSymbolTable
 70
     2
  0
DIMSTYLE
105
79
330
78
100
AcDbSymbolTableRecord
100
AcDbDimStyleTableRecord
  2
STANDARD
 70
     0
  3

  4

  5

  6

  7

 40
0.0
 41
2.5
 42
0.625
 43
3.75
 44
1.25
 45
0.0
 46
0.0
 47
0.0
 48
0.0
140
2.5
141
2.5
142
0.0
143
0.03937007874016
144
1.0
145
0.0
146
1.0
147
0.625
 71
     0
 72
     0
 73
     0
 74
     0
 75
     0
 76
     0
 77
     1
 78
     8
170
     0
171
     3
172
     1
173
     0
174
     0
175
     0
176
     0
177
     0
178
     0
270
     2
271
     2
272
     2
273
     2
274
     3
340
71
275
     0
280
     0
281
     0
282
     0
283
     0
284
     8
285
     0
286
     0
287
     3
288
     0
  0
ENDTAB
  0
TABLE
  2
BLOCK_RECORD
  5
A01
330
0
100
AcDbSymbolTable
  70
5
  0
BLOCK_RECORD
  5
A02
330
A01
100
AcDbSymbolTableRecord
100
AcDbBlockTableRecord
  2
*MODEL_SPACE
  0
BLOCK_RECORD
  5
A03
330
A01
100
AcDbSymbolTableRecord
100
AcDbBlockTableRecord
  2
*PAPER_SPACE
  0
BLOCK_RECORD
  5
A13
330
A01
100
AcDbSymbolTableRecord
100
AcDbBlockTableRecord
  2
*Dimension
  0
BLOCK_RECORD
  5
A1D
330
A01
100
AcDbSymbolTableRecord
100
AcDbBlockTableRecord
  2
*Dimension001
  0
BLOCK_RECORD
  5
A27
330
A01
100
AcDbSymbolTableRecord
100
AcDbBlockTableRecord
  2
*Dimension002
  0
BLOCK_RECORD
  5
A31
330
A01
100
AcDbSymbolTableRecord
100
AcDbBlockTableRecord
  2
*Dimension003
  0
BLOCK_RECORD
  5
A39
330
A01
100
AcDbSymbolTableRecord
100
AcDbBlockTableRecord
  2
*Dimension004
  0
ENDTAB
  0
ENDSEC
  0
SECTION
  2
BLOCKS
  0
BLOCK
  5
A04
330
A02
100
AcDbEntity
  8
0
100
AcDbBlockBegin
  2
*MODEL_SPACE
 70
   0
 10
0
 20
0
 30
0
  3
*MODEL_SPACE
  1
 
  0
ENDBLK
  5
A05
330
A02
100
AcDbEntity
  8
0
100
AcDbBlockEnd
  0
BLOCK
  5
A06
330
A03
100
AcDbEntity
 67
1
  8
0
100
AcDbBlockBegin
  2
*PAPER_SPACE
 70
   0
 10
0
 20
0
 30
0
  3
*PAPER_SPACE
  1
 
  0
ENDBLK
  5
A07
330
A03
100
AcDbEntity
 67
    1
  8
0
100
AcDbBlockEnd
  0
BLOCK
  5
A14
330
A13
100
AcDbEntity
  8
Dimension
100
AcDbBlockBegin
  2
*Dimension
 70
   1
 10
0
 20
0
 30
0
  3
*Dimension
  1
 
  0
LINE
  5
A15
330
A13
100
AcDbEntity
  8
Dimension
100
AcDbLine
 10
83.0043
 20
137.342
 30
0
 11
83.0043
 21
177.575
 31
0
  0
LINE
  5
A16
330
A13
100
AcDbEntity
  8
Dimension
100
AcDbLine
 10
179.829
 20
137.342
 30
0
 11
179.829
 21
177.575
 31
0
  0
LINE
  5
A17
330
A13
100
AcDbEntity
  8
Dimension
100
AcDbLine
 10
179.829
 20
177.575
 30
0
 11
83.0043
 21
177.575
 31
0
  0
TEXT
  5
A18
330
A13
100
AcDbEntity
  8
Dimension
100
AcDbText
 10
130.386
 20
172.575
 30
0
 40
3.5
  1
3.812 in
  7
STANDARD
 72
1
 11
130.386
 21
177.575
 31
0
100
AcDbText
  0
SOLID
  5
A19
330
A13
100
AcDbEntity
  8
0
 62
     0
100
AcDbTrace
 10
184.829
 20
177.991
 30
0
 11
184.829
 21
177.158
 31
0
 12
179.829
 22
177.575
 32
0
 13
179.829
 23
177.575
 33
0
  0
SOLID
  5
A1A
330
A13
100
AcDbEntity
  8
0
 62
     0
100
AcDbTrace
 10
78.0043
 20
177.991
 30
0
 11
78.0043
 21
177.158
 31
0
 12
83.0043
 22
177.575
 32
0
 13
83.0043
 23
177.575
 33
0
  0
ENDBLK
  5
A1B
330
A13
100
AcDbEntity
  8
Dimension
100
AcDbBlockEnd
  0
BLOCK
  5
A1E
330
A1D
100
AcDbEntity
  8
Dimension001
100
AcDbBlockBegin
  2
*Dimension001
 70
   1
 10
0
 20
0
 30
0
  3
*Dimension001
  1
 
  0
LINE
  5
A1F
330
A1D
100
AcDbEntity
  8
Dimension001
100
AcDbLine
 10
164.881
 20
123.023
 30
0
 11
164.881
 21
159.956
 31
0
  0
LINE
  5
A20
330
A1D
100
AcDbEntity
  8
Dimension001
100
AcDbLine
 10
97.9522
 20
123.023
 30
0
 11
97.9522
 21
159.956
 31
0
  0
LINE
  5
A21
330
A1D
100
AcDbEntity
  8
Dimension001
100
AcDbLine
 10
97.9522
 20
159.956
 30
0
 11
164.881
 21
159.956
 31
0
  0
TEXT
  5
A22
330
A1D
100
AcDbEntity
  8
Dimension001
100
AcDbText
 10
130.644
 20
164.956
 30
0
 40
3.5
  1
2.635 in
  7
STANDARD
 72
1
 11
130.644
 21
159.956
 31
0
100
AcDbText
  0
SOLID
  5
A23
330
A1D
100
AcDbEntity
  8
0
 62
     0
100
AcDbTrace
 10
92.9522
 20
160.373
 30
0
 11
92.9522
 21
159.539
 31
0
 12
97.9522
 22
159.956
 32
0
 13
97.9522
 23
159.956
 33
0
  0
SOLID
  5
A24
330
A1D
100
AcDbEntity
  8
0
 62
     0
100
AcDbTrace
 10
169.881
 20
160.373
 30
0
 11
169.881
 21
159.539
 31
0
 12
164.881
 22
159.956
 32
0
 13
164.881
 23
159.956
 33
0
  0
ENDBLK
  5
A25
330
A1D
100
AcDbEntity
  8
Dimension001
100
AcDbBlockEnd
  0
BLOCK
  5
A28
330
A27
100
AcDbEntity
  8
Dimension002
100
AcDbBlockBegin
  2
*Dimension002
 70
   1
 10
0
 20
0
 30
0
  3
*Dimension002
  1
 
  0
LINE
  5
A29
330
A27
100
AcDbEntity
  8
Dimension002
100
AcDbLine
 10
100.333
 20
120.642
 30
0
 11
174.531
 21
120.642
 31
0
  0
LINE
  5
A2A
330
A27
100
AcDbEntity
  8
Dimension002
100
AcDbLine
 10
100.333
 20
154.043
 30
0
 11
174.531
 21
154.043
 31
0
  0
LINE
  5
A2B
330
A27
100
AcDbEntity
  8
Dimension002
100
AcDbLine
 10
174.531
 20
154.043
 30
0
 11
174.531
 21
120.642
 31
0
  0
TEXT
  5
A2C
330
A27
100
AcDbEntity
  8
Dimension002
100
AcDbText
 10
169.531
 20
140.617
 30
0
 40
3.5
  1
1.315 in
  7
STANDARD
 72
1
 11
174.531
 21
140.617
 31
0
100
AcDbText
  0
SOLID
  5
A2D
330
A27
100
AcDbEntity
  8
0
 62
     0
100
AcDbTrace
 10
174.948
 20
159.043
 30
0
 11
174.114
 21
159.043
 31
0
 12
174.531
 22
154.043
 32
0
 13
174.531
 23
154.043
 33
0
  0
SOLID
  5
A2E
330
A27
100
AcDbEntity
  8
0
 62
     0
100
AcDbTrace
 10
174.948
 20
115.642
 30
0
 11
174.114
 21
115.642
 31
0
 12
174.531
 22
120.642
 32
0
 13
174.531
 23
120.642
 33
0
  0
ENDBLK
  5
A2F
330
A27
100
AcDbEntity
  8
Dimension002
100
AcDbBlockEnd
  0
BLOCK
  5
A32
330
A31
100
AcDbEntity
  8
Dimension003
100
AcDbBlockBegin
  2
*Dimension003
 70
   1
 10
0
 20
0
 30
0
  3
*Dimension003
  1
 
  0
LINE
  5
A33
330
A31
100
AcDbEntity
  8
Dimension003
100
AcDbLine
 10
181.724
 20
138.784
 30
0
 11
177.934
 21
135.9
 31
0
  0
TEXT
  5
A34
330
A31
100
AcDbEntity
  8
Dimension003
100
AcDbText
 10
191.594
 20
152.419
 30
0
 40
3.5
  1
⌀0.1875 in
  7
STANDARD
 72
1
 11
191.594
 21
152.419
 31
0
100
AcDbText
  0
SOLID
  5
A35
330
A31
100
AcDbEntity
  8
0
 62
     0
100
AcDbTrace
 10
177.998
 20
135.425
 30
0
 11
177.493
 21
136.088
 31
0
 12
181.724
 22
138.784
 32
0
 13
181.724
 23
138.784
 33
0
  0
SOLID
  5
A36
330
A31
100
AcDbEntity
  8
0
 62
     0
100
AcDbTrace
 10
182.165
 20
138.597
 30
0
 11
181.661
 21
139.26
 31
0
 12
177.934
 22
135.9
 32
0
 13
177.934
 23
135.9
 33
0
  0
ENDBLK
  5
A37
330
A31
100
AcDbEntity
  8
Dimension003
100
AcDbBlockEnd
  0
BLOCK
  5
A3A
330
A39
100
AcDbEntity
  8
Dimension004
100
AcDbBlockBegin
  2
*Dimension004
 70
   1
 10
0
 20
0
 30
0
  3
*Dimension004
  1
 
  0
LINE
  5
A3B
330
A39
100
AcDbEntity
  8
Dimension004
100
AcDbLine
 10
164.335
 20
121.506
 30
0
 11
160.665
 21
124.54
 31
0
  0
TEXT
  5
A3C
330
A39
100
AcDbEntity
  8
Dimension004
100
AcDbText
 10
183.476
 20
111.828
 30
0
 40
3.5
  1
⌀0.1875 in
  7
STANDARD
 72
1
 11
183.476
 21
111.828
 31
0
100
AcDbText
  0
SOLID
  5
A3D
330
A39
100
AcDbEntity
  8
0
 62
     0
100
AcDbTrace
 10
160.216
 20
124.37
 30
0
 11
160.747
 21
125.013
 31
0
 12
164.335
 22
121.506
 32
0
 13
164.335
 23
121.506
 33
0
  0
SOLID
  5
A3E
330
A39
100
AcDbEntity
  8
0
 62
     0
100
AcDbTrace
 10
164.253
 20
121.034
 30
0
 11
164.784
 21
121.676
 31
0
 12
160.665
 22
124.54
 32
0
 13
160.665
 23
124.54
 33
0
  0
ENDBLK
  5
A3F
330
A39
100
AcDbEntity
  8
Dimension004
100
AcDbBlockEnd
  0
ENDSEC
  0
SECTION
  2
ENTITIES
  0
LINE
  5
A08
330
A02
100
AcDbEntity
  8
View
100
AcDbLine
 10
97.9522
 20
123.023
 30
0
 11
97.9522
 21
151.662
 31
0
  0
ARC
  5
A09
330
A02
100
AcDbEntity
  8
View
100
AcDbCircle
 10
100.333
 20
151.662
 30
0
 40
2.38125
100
AcDbArc
 50
90
 51
180
  0
LINE
  5
A0A
330
A02
100
AcDbEntity
  8
View
100
AcDbLine
 10
100.333
 20
154.043
 30
0
 11
162.5
 21
154.043
 31
0
  0
ARC
  5
A0B
330
A02
100
AcDbEntity
  8
View
100
AcDbCircle
 10
162.5
 20
151.662
 30
0
 40
2.38125
100
AcDbArc
 50
0
 51
90
  0
LINE
  5
A0C
330
A02
100
AcDbEntity
  8
View
100
AcDbLine
 10
164.881
 20
151.662
 30
0
 11
164.881
 21
123.023
 31
0
  0
ARC
  5
A0D
330
A02
100
AcDbEntity
  8
View
100
AcDbCircle
 10
162.5
 20
123.023
 30
0
 40
2.38125
100
AcDbArc
 50
-90
 51
0
  0
LINE
  5
A0E
330
A02
100
AcDbEntity
  8
View
100
AcDbLine
 10
162.5
 20
120.642
 30
0
 11
100.333
 21
120.642
 31
0
  0
ARC
  5
A0F
330
A02
100
AcDbEntity
  8
View
100
AcDbCircle
 10
100.333
 20
123.023
 30
0
 40
2.38125
100
AcDbArc
 50
180
 51
-90
  0
CIRCLE
  5
A10
330
A02
100
AcDbEntity
  8
View
100
AcDbCircle
 10
83.0043
 20
137.342
 40
2.38125
  0
CIRCLE
  5
A11
330
A02
100
AcDbEntity
  8
View
100
AcDbCircle
 10
179.829
 20
137.342
 40
2.38125
  0
DIMENSION
  5
A12
330
A02
100
AcDbEntity
  8
Dimension
100
AcDbDimension
  2
*Dimension
 10
130.386
 20
177.575
 30
0
 11
130.386
 21
172.575
 31
0
 70
32
  1
3.812 in
  3
STANDARD
100
AcDbAlignedDimension
 13
179.829
 23
137.342
 33
0
 14
83.0043
 24
137.342
 34
0
100
AcDbRotatedDimension
  0
DIMENSION
  5
A1C
330
A02
100
AcDbEntity
  8
Dimension001
100
AcDbDimension
  2
*Dimension001
 10
130.644
 20
159.956
 30
0
 11
130.644
 21
164.956
 31
0
 70
32
  1
2.635 in
  3
STANDARD
100
AcDbAlignedDimension
 13
97.9522
 23
123.023
 33
0
 14
164.881
 24
123.023
 34
0
100
AcDbRotatedDimension
  0
DIMENSION
  5
A26
330
A02
100
AcDbEntity
  8
Dimension002
100
AcDbDimension
  2
*Dimension002
 10
174.531
 20
140.617
 30
0
 11
169.531
 21
140.617
 31
0
 70
32
  1
1.315 in
  3
STANDARD
100
AcDbAlignedDimension
 13
100.333
 23
154.043
 33
0
 14
100.333
 24
120.642
 34
0
 50
90
100
AcDbRotatedDimension
  0
DIMENSION
  5
A30
330
A02
100
AcDbEntity
  8
Dimension003
100
AcDbDimension
  2
*Dimension003
 10
181.724
 20
138.784
 30
0
 11
191.594
 21
152.419
 31
0
 70
3
  1
⌀0.1875 in
  3
STANDARD
100
AcDbDiametricDimension
 15
177.934
 25
135.9
 35
0
 40
0
  0
DIMENSION
  5
A38
330
A02
100
AcDbEntity
  8
Dimension004
100
AcDbDimension
  2
*Dimension004
 10
164.335
 20
121.506
 30
0
 11
183.476
 21
111.828
 31
0
 70
3
  1
⌀0.1875 in
  3
STANDARD
100
AcDbDiametricDimension
 15
160.665
 25
124.54
 35
0
 40
0
  0
TEXT
  5
A40
330
A02
100
AcDbEntity
  8
Annotation
100
AcDbText
 10
204.209
 20
143.663
 30
0
 40
5.0038
  1
2 Places
  7
STANDARD
 72
1
 11
204.209
 21
143.663
 31
0
100
AcDbText
  0
TEXT
  5
A41
330
A02
100
AcDbEntity
  8
Annotation001
100
AcDbText
 10
175.413
 20
100.751
 30
0
 40
5.0038
  1
4 Places
  7
STANDARD
 72
1
 11
175.413
 21
100.751
 31
0
100
AcDbText
  0
ENDSEC
  0
SECTION
  2
OBJECTS
  0
DICTIONARY
  5
F000
330
0
100
AcDbDictionary
  3
ACAD_GROUP
350
F001
  0
DICTIONARY
  5
F001
330
F000
100
AcDbDictionary
  0
ENDSEC
  0
EOF