999
FreeCAD v0.20 29177 +426 (Git)
  0
SECTION
  2
HEADER
  9
$ACADVER
  1
AC1014
  9
$ACADMAINTVER
 70
     9
  9
$DWGCODEPAGE
  3
ANSI_1252
  9
$TEXTSTYLE
  7
STANDARD
  9
$DIMSTYLE
  2
STANDARD
  9
$DIMTXSTY
  7
STANDARD
  9
$CMLSTYLE
  2
STANDARD
  9
$LUNITS
 70
2
  9
$INSUNITS
 70
4
  9
$PEXTMAX
 10
50
 20
50
 30
50
  9
$PEXTMIN
 10
0
 20
0
 30
0
  9
$HANDSEED
  5
FFFF
  0
ENDSEC
  0
SECTION
  2
CLASSES
  0
CLASS
  1
ACDBDICTIONARYWDFLT
  2
AcDbDictionaryWithDefault
  3
ObjectDBX Classes
 90
        0
280
     0
281
     0
  0
CLASS
  1
XRECORD
  2
AcDbXrecord
  3
ObjectDBX Classes
 90
        0
280
     0
281
     0
  0
CLASS
  1
LWPOLYLINE
  2
AcDbPolyline
  3
ObjectDBX Classes
 90
        0
280
     0
281
     1
  0
ENDSEC
  0
SECTION
  2
TABLES
  0
TABLE
  2
VPORT
  5
20
330
0
100
AcDbSymbolTable
 70
     1
  0
VPORT
  5
21
330
20
100
AcDbSymbolTableRecord
100
AcDbViewportTableRecord
  2
*ACTIVE
 70
     0
  0
ENDTAB
  0
TABLE
  2
LTYPE
  5
22
330
0
100
AcDbSymbolTable
 70
     1
  0
LTYPE
  5
23
330
21
100
AcDbSymbolTableRecord
100
AcDbLinetypeTableRecord
  2
BYBLOCK
 70
     0
  3

 72
    65
 73
     0
 40
0.0
  0
LTYPE
  5
24
330
21
100
AcDbSymbolTableRecord
100
AcDbLinetypeTableRecord
  2
BYLAYER
 70
     0
  3

 72
    65
 73
     0
 40
0.0
  0
LTYPE
  5
25
330
21
100
AcDbSymbolTableRecord
100
AcDbLinetypeTableRecord
  2
CONTINUOUS
 70
     0
  3
Solid line
 72
    65
 73
     0
 40
0.0
  0
ENDTAB
  0
TABLE
  2
LAYER
  5
A88
330
0
100
AcDbSymbolTable
 70
8
  0
LAYER
  5
A89
330
A88
100
AcDbSymbolTableRecord
100
AcDbLayerTableRecord
  2
0
 70
   0
 62
   7
  6
CONTINUOUS
  0
LAYER
  5
A8A
330
A88
100
AcDbSymbolTableRecord
100
AcDbLayerTableRecord
  2
View001
 70
    0
 62
    7
  6
CONTINUOUS
  0
LAYER
  5
A8B
330
A88
100
AcDbSymbolTableRecord
100
AcDbLayerTableRecord
  2
Dimension
 70
    0
 62
    7
  6
CONTINUOUS
  0
LAYER
  5
A8C
330
A88
100
AcDbSymbolTableRecord
100
AcDbLayerTableRecord
  2
Dimension001
 70
    0
 62
    7
  6
CONTINUOUS
  0
LAYER
  5
A8D
330
A88
100
AcDbSymbolTableRecord
100
AcDbLayerTableRecord
  2
Dimension002
 70
    0
 62
    7
  6
CONTINUOUS
  0
LAYER
  5
A8E
330
A88
100
AcDbSymbolTableRecord
100
AcDbLayerTableRecord
  2
Dimension004
 70
    0
 62
    7
  6
CONTINUOUS
  0
LAYER
  5
A8F
330
A88
100
AcDbSymbolTableRecord
100
AcDbLayerTableRecord
  2
Dimension005
 70
    0
 62
    7
  6
CONTINUOUS
  0
LAYER
  5
A90
330
A88
100
AcDbSymbolTableRecord
100
AcDbLayerTableRecord
  2
Dimension006
 70
    0
 62
    7
  6
CONTINUOUS
  0
ENDTAB
  0
TABLE
  2
STYLE
  5
70
330
0
100
AcDbSymbolTable
 70
     2
  0
STYLE
  5
71
330
70
100
AcDbSymbolTableRecord
100
AcDbTextStyleTableRecord
  2
STANDARD
 70
     0
 40
0.0
 41
1.0
 50
0.0
 71
     0
 42
2.5
  3
arial.ttf
  4

  0
STYLE
  5
72
330
70
100
AcDbSymbolTableRecord
100
AcDbTextStyleTableRecord
  2
ANNOTATIVE
 70
     0
 40
0.0
 41
1.0
 50
0.0
 71
     0
 42
2.5
  3
arial.ttf
  4

  0
ENDTAB
  0
TABLE
  2
VIEW
  5
73
330
0
100
AcDbSymbolTable
 70
     0
  0
ENDTAB
  0
TABLE
  2
UCS
  5
74
330
0
100
AcDbSymbolTable
 70
     0
  0
ENDTAB
  0
TABLE
  2
APPID
  5
75
330
0
100
AcDbSymbolTable
 70
     2
  0
APPID
  5
76
330
75
100
AcDbSymbolTableRecord
100
AcDbRegAppTableRecord
  2
ACAD
 70
     0
  0
APPID
  5
77
330
75
100
AcDbSymbolTableRecord
100
AcDbRegAppTableRecord
  2
ACADANNOTATIVE
 70
     0
  0
ENDTAB
  0
TABLE
  2
DIMSTYLE
  5
78
330
0
100
AcDbSymbolTable
 70
     2
  0
DIMSTYLE
105
79
330
78
100
AcDbSymbolTableRecord
100
AcDbDimStyleTableRecord
  2
STANDARD
 70
     0
  3

  4

  5

  6

  7

 40
0.0
 41
2.5
 42
0.625
 43
3.75
 44
1.25
 45
0.0
 46
0.0
 47
0.0
 48
0.0
140
2.5
141
2.5
142
0.0
143
0.03937007874016
144
1.0
145
0.0
146
1.0
147
0.625
 71
     0
 72
     0
 73
     0
 74
     0
 75
     0
 76
     0
 77
     1
 78
     8
170
     0
171
     3
172
     1
173
     0
174
     0
175
     0
176
     0
177
     0
178
     0
270
     2
271
     2
272
     2
273
     2
274
     3
340
71
275
     0
280
     0
281
     0
282
     0
283
     0
284
     8
285
     0
286
     0
287
     3
288
     0
  0
ENDTAB
  0
TABLE
  2
BLOCK_RECORD
  5
A01
330
0
100
AcDbSymbolTable
  70
5
  0
BLOCK_RECORD
  5
A02
330
A01
100
AcDbSymbolTableRecord
100
AcDbBlockTableRecord
  2
*MODEL_SPACE
  0
BLOCK_RECORD
  5
A03
330
A01
100
AcDbSymbolTableRecord
100
AcDbBlockTableRecord
  2
*PAPER_SPACE
  0
BLOCK_RECORD
  5
A59
330
A01
100
AcDbSymbolTableRecord
100
AcDbBlockTableRecord
  2
*Dimension
  0
BLOCK_RECORD
  5
A61
330
A01
100
AcDbSymbolTableRecord
100
AcDbBlockTableRecord
  2
*Dimension001
  0
BLOCK_RECORD
  5
A69
330
A01
100
AcDbSymbolTableRecord
100
AcDbBlockTableRecord
  2
*Dimension002
  0
BLOCK_RECORD
  5
A71
330
A01
100
AcDbSymbolTableRecord
100
AcDbBlockTableRecord
  2
*Dimension004
  0
BLOCK_RECORD
  5
A79
330
A01
100
AcDbSymbolTableRecord
100
AcDbBlockTableRecord
  2
*Dimension005
  0
BLOCK_RECORD
  5
A81
330
A01
100
AcDbSymbolTableRecord
100
AcDbBlockTableRecord
  2
*Dimension006
  0
ENDTAB
  0
ENDSEC
  0
SECTION
  2
BLOCKS
  0
BLOCK
  5
A04
330
A02
100
AcDbEntity
  8
0
100
AcDbBlockBegin
  2
*MODEL_SPACE
 70
   0
 10
0
 20
0
 30
0
  3
*MODEL_SPACE
  1
 
  0
ENDBLK
  5
A05
330
A02
100
AcDbEntity
  8
0
100
AcDbBlockEnd
  0
BLOCK
  5
A06
330
A03
100
AcDbEntity
 67
1
  8
0
100
AcDbBlockBegin
  2
*PAPER_SPACE
 70
   0
 10
0
 20
0
 30
0
  3
*PAPER_SPACE
  1
 
  0
ENDBLK
  5
A07
330
A03
100
AcDbEntity
 67
    1
  8
0
100
AcDbBlockEnd
  0
BLOCK
  5
A5A
330
A59
100
AcDbEntity
  8
Dimension
100
AcDbBlockBegin
  2
*Dimension
 70
   1
 10
0
 20
0
 30
0
  3
*Dimension
  1
 
  0
LINE
  5
A5B
330
A59
100
AcDbEntity
  8
Dimension
100
AcDbLine
 10
180.237
 20
197.502
 30
0
 11
171.553
 21
193.589
 31
0
  0
TEXT
  5
A5C
330
A59
100
AcDbEntity
  8
Dimension
100
AcDbText
 10
190.945
 20
207.946
 30
0
 40
3.5
  1
⌀0.375 in
  7
STANDARD
 72
1
 11
190.945
 21
207.946
 31
0
100
AcDbText
  0
SOLID
  5
A5D
330
A59
100
AcDbEntity
  8
0
 62
     0
100
AcDbTrace
 10
175.85
 20
195.068
 30
0
 11
175.507
 21
195.828
 31
0
 12
180.237
 22
197.502
 32
0
 13
180.237
 23
197.502
 33
0
  0
SOLID
  5
A5E
330
A59
100
AcDbEntity
  8
0
 62
     0
100
AcDbTrace
 10
176.283
 20
195.263
 30
0
 11
175.94
 21
196.023
 31
0
 12
171.553
 22
193.589
 32
0
 13
171.553
 23
193.589
 33
0
  0
ENDBLK
  5
A5F
330
A59
100
AcDbEntity
  8
Dimension
100
AcDbBlockEnd
  0
BLOCK
  5
A62
330
A61
100
AcDbEntity
  8
Dimension001
100
AcDbBlockBegin
  2
*Dimension001
 70
   1
 10
0
 20
0
 30
0
  3
*Dimension001
  1
 
  0
LINE
  5
A63
330
A61
100
AcDbEntity
  8
Dimension001
100
AcDbLine
 10
136.972
 20
181.32
 30
0
 11
133.538
 21
178.02
 31
0
  0
TEXT
  5
A64
330
A61
100
AcDbEntity
  8
Dimension001
100
AcDbText
 10
146.842
 20
197.336
 30
0
 40
3.5
  1
⌀0.1875 in
  7
STANDARD
 72
1
 11
146.842
 21
197.336
 31
0
100
AcDbText
  0
SOLID
  5
A65
330
A61
100
AcDbEntity
  8
0
 62
     0
100
AcDbTrace
 10
133.656
 20
177.555
 30
0
 11
133.078
 21
178.156
 31
0
 12
136.972
 22
181.32
 32
0
 13
136.972
 23
181.32
 33
0
  0
SOLID
  5
A66
330
A61
100
AcDbEntity
  8
0
 62
     0
100
AcDbTrace
 10
137.432
 20
181.184
 30
0
 11
136.854
 21
181.785
 31
0
 12
133.538
 22
178.02
 32
0
 13
133.538
 23
178.02
 33
0
  0
ENDBLK
  5
A67
330
A61
100
AcDbEntity
  8
Dimension001
100
AcDbBlockEnd
  0
BLOCK
  5
A6A
330
A69
100
AcDbEntity
  8
Dimension002
100
AcDbBlockBegin
  2
*Dimension002
 70
   1
 10
0
 20
0
 30
0
  3
*Dimension002
  1
 
  0
LINE
  5
A6B
330
A69
100
AcDbEntity
  8
Dimension002
100
AcDbLine
 10
180.37
 20
171.056
 30
0
 11
177.77
 21
169.234
 31
0
  0
TEXT
  5
A6C
330
A69
100
AcDbEntity
  8
Dimension002
100
AcDbText
 10
189.697
 20
183.605
 30
0
 40
3.5
  1
⌀0.125 in
  7
STANDARD
 72
1
 11
189.697
 21
183.605
 31
0
100
AcDbText
  0
SOLID
  5
A6D
330
A69
100
AcDbEntity
  8
0
 62
     0
100
AcDbTrace
 10
176.515
 20
167.845
 30
0
 11
176.036
 21
168.528
 31
0
 12
180.37
 22
171.056
 32
0
 13
180.37
 23
171.056
 33
0
  0
SOLID
  5
A6E
330
A69
100
AcDbEntity
  8
0
 62
     0
100
AcDbTrace
 10
182.104
 20
171.763
 30
0
 11
181.625
 21
172.445
 31
0
 12
177.77
 22
169.234
 32
0
 13
177.77
 23
169.234
 33
0
  0
ENDBLK
  5
A6F
330
A69
100
AcDbEntity
  8
Dimension002
100
AcDbBlockEnd
  0
BLOCK
  5
A72
330
A71
100
AcDbEntity
  8
Dimension004
100
AcDbBlockBegin
  2
*Dimension004
 70
   1
 10
0
 20
0
 30
0
  3
*Dimension004
  1
 
  0
LINE
  5
A73
330
A71
100
AcDbEntity
  8
Dimension004
100
AcDbLine
 10
236.59
 20
191.419
 30
0
 11
233.598
 21
193.421
 31
0
  0
TEXT
  5
A74
330
A71
100
AcDbEntity
  8
Dimension004
100
AcDbText
 10
248.447
 20
189.351
 30
0
 40
3.5
  1
⌀0.1417 in
  7
STANDARD
 72
1
 11
248.447
 21
189.351
 31
0
100
AcDbText
  0
SOLID
  5
A75
330
A71
100
AcDbEntity
  8
0
 62
     0
100
AcDbTrace
 10
232.203
 20
193.854
 30
0
 11
232.666
 21
194.546
 31
0
 12
236.59
 22
191.419
 32
0
 13
236.59
 23
191.419
 33
0
  0
SOLID
  5
A76
330
A71
100
AcDbEntity
  8
0
 62
     0
100
AcDbTrace
 10
237.522
 20
190.294
 30
0
 11
237.985
 21
190.986
 31
0
 12
233.598
 22
193.421
 32
0
 13
233.598
 23
193.421
 33
0
  0
ENDBLK
  5
A77
330
A71
100
AcDbEntity
  8
Dimension004
100
AcDbBlockEnd
  0
BLOCK
  5
A7A
330
A79
100
AcDbEntity
  8
Dimension005
100
AcDbBlockBegin
  2
*Dimension005
 70
   1
 10
0
 20
0
 30
0
  3
*Dimension005
  1
 
  0
LINE
  5
A7B
330
A79
100
AcDbEntity
  8
Dimension005
100
AcDbLine
 10
265.607
 20
99.2665
 30
0
 11
275.131
 21
99.3935
 31
0
  0
TEXT
  5
A7C
330
A79
100
AcDbEntity
  8
Dimension005
100
AcDbText
 10
248.988
 20
104.344
 30
0
 40
3.5
  1
⌀0.375 in
  7
STANDARD
 72
1
 11
248.988
 21
104.344
 31
0
100
AcDbText
  0
SOLID
  5
A7D
330
A79
100
AcDbEntity
  8
0
 62
     0
100
AcDbTrace
 10
270.601
 20
99.7498
 30
0
 11
270.612
 21
98.9165
 31
0
 12
265.607
 22
99.2665
 32
0
 13
265.607
 23
99.2665
 33
0
  0
SOLID
  5
A7E
330
A79
100
AcDbEntity
  8
0
 62
     0
100
AcDbTrace
 10
270.126
 20
99.7435
 30
0
 11
270.137
 21
98.9102
 31
0
 12
275.131
 22
99.3935
 32
0
 13
275.131
 23
99.3935
 33
0
  0
ENDBLK
  5
A7F
330
A79
100
AcDbEntity
  8
Dimension005
100
AcDbBlockEnd
  0
BLOCK
  5
A82
330
A81
100
AcDbEntity
  8
Dimension006
100
AcDbBlockBegin
  2
*Dimension006
 70
   1
 10
0
 20
0
 30
0
  3
*Dimension006
  1
 
  0
LINE
  5
A83
330
A81
100
AcDbEntity
  8
Dimension006
100
AcDbLine
 10
296.983
 20
127.722
 30
0
 11
318.586
 21
122.5
 31
0
  0
TEXT
  5
A84
330
A81
100
AcDbEntity
  8
Dimension006
100
AcDbText
 10
279.038
 20
137.429
 30
0
 40
3.5
  1
⌀0.875 in
  7
STANDARD
 72
1
 11
279.038
 21
137.429
 31
0
100
AcDbText
  0
SOLID
  5
A85
330
A81
100
AcDbEntity
  8
0
 62
     0
100
AcDbTrace
 10
301.941
 20
126.952
 30
0
 11
301.745
 21
126.142
 31
0
 12
296.983
 22
127.722
 32
0
 13
296.983
 23
127.722
 33
0
  0
SOLID
  5
A86
330
A81
100
AcDbEntity
  8
0
 62
     0
100
AcDbTrace
 10
313.824
 20
124.08
 30
0
 11
313.628
 21
123.27
 31
0
 12
318.586
 22
122.5
 32
0
 13
318.586
 23
122.5
 33
0
  0
ENDBLK
  5
A87
330
A81
100
AcDbEntity
  8
Dimension006
100
AcDbBlockEnd
  0
ENDSEC
  0
SECTION
  2
ENTITIES
  0
LINE
  5
A08
330
A02
100
AcDbEntity
  8
View001
100
AcDbLine
 10
117.475
 20
73.7309
 30
0
 11
339.725
 21
73.7309
 31
0
  0
LINE
  5
A09
330
A02
100
AcDbEntity
  8
View001
100
AcDbLine
 10
339.725
 20
73.7309
 30
0
 11
339.725
 21
231.069
 31
0
  0
LINE
  5
A0A
330
A02
100
AcDbEntity
  8
View001
100
AcDbLine
 10
339.725
 20
231.069
 30
0
 11
260.844
 21
231.069
 31
0
  0
LINE
  5
A0B
330
A02
100
AcDbEntity
  8
View001
100
AcDbLine
 10
260.844
 20
231.069
 30
0
 11
260.844
 21
201.17
 31
0
  0
LINE
  5
A0C
330
A02
100
AcDbEntity
  8
View001
100
AcDbLine
 10
260.844
 20
201.17
 30
0
 11
209.844
 21
201.17
 31
0
  0
LINE
  5
A0D
330
A02
100
AcDbEntity
  8
View001
100
AcDbLine
 10
209.844
 20
201.17
 30
0
 11
209.844
 21
231.069
 31
0
  0
LINE
  5
A0E
330
A02
100
AcDbEntity
  8
View001
100
AcDbLine
 10
209.844
 20
231.069
 30
0
 11
117.475
 21
231.069
 31
0
  0
LINE
  5
A0F
330
A02
100
AcDbEntity
  8
View001
100
AcDbLine
 10
117.475
 20
231.069
 30
0
 11
117.475
 21
73.7309
 31
0
  0
CIRCLE
  5
A10
330
A02
100
AcDbEntity
  8
View001
100
AcDbCircle
 10
307.784
 20
125.111
 40
11.1125
  0
CIRCLE
  5
A11
330
A02
100
AcDbEntity
  8
View001
100
AcDbCircle
 10
270.369
 20
99.33
 40
4.7625
  0
CIRCLE
  5
A12
330
A02
100
AcDbEntity
  8
View001
100
AcDbCircle
 10
175.895
 20
195.545
 40
4.7625
  0
CIRCLE
  5
A13
330
A02
100
AcDbEntity
  8
View001
100
AcDbCircle
 10
135.255
 20
179.67
 40
2.38125
  0
CIRCLE
  5
A14
330
A02
100
AcDbEntity
  8
View001
100
AcDbCircle
 10
135.255
 20
163.16
 40
2.38125
  0
CIRCLE
  5
A15
330
A02
100
AcDbEntity
  8
View001
100
AcDbCircle
 10
235.094
 20
153.32
 40
1.8
  0
CIRCLE
  5
A16
330
A02
100
AcDbEntity
  8
View001
100
AcDbCircle
 10
235.094
 20
192.42
 40
1.8
  0
CIRCLE
  5
A17
330
A02
100
AcDbEntity
  8
View001
100
AcDbCircle
 10
327.025
 20
184.42
 40
1.5875
  0
CIRCLE
  5
A18
330
A02
100
AcDbEntity
  8
View001
100
AcDbCircle
 10
333.375
 20
184.42
 40
1.5875
  0
CIRCLE
  5
A19
330
A02
100
AcDbEntity
  8
View001
100
AcDbCircle
 10
172.72
 20
141.088
 40
1.5875
  0
CIRCLE
  5
A1A
330
A02
100
AcDbEntity
  8
View001
100
AcDbCircle
 10
179.07
 20
141.088
 40
1.5875
  0
CIRCLE
  5
A1B
330
A02
100
AcDbEntity
  8
View001
100
AcDbCircle
 10
267.194
 20
152.67
 40
1.5875
  0
CIRCLE
  5
A1C
330
A02
100
AcDbEntity
  8
View001
100
AcDbCircle
 10
273.544
 20
152.67
 40
1.5875
  0
CIRCLE
  5
A1D
330
A02
100
AcDbEntity
  8
View001
100
AcDbCircle
 10
172.72
 20
112.03
 40
1.5875
  0
CIRCLE
  5
A1E
330
A02
100
AcDbEntity
  8
View001
100
AcDbCircle
 10
179.07
 20
112.03
 40
1.5875
  0
CIRCLE
  5
A1F
330
A02
100
AcDbEntity
  8
View001
100
AcDbCircle
 10
201.295
 20
99.33
 40
1.5875
  0
CIRCLE
  5
A20
330
A02
100
AcDbEntity
  8
View001
100
AcDbCircle
 10
201.295
 20
105.68
 40
1.5875
  0
CIRCLE
  5
A21
330
A02
100
AcDbEntity
  8
View001
100
AcDbCircle
 10
267.194
 20
114.57
 40
1.5875
  0
CIRCLE
  5
A22
330
A02
100
AcDbEntity
  8
View001
100
AcDbCircle
 10
273.544
 20
114.57
 40
1.5875
  0
CIRCLE
  5
A23
330
A02
100
AcDbEntity
  8
View001
100
AcDbCircle
 10
172.72
 20
170.145
 40
1.5875
  0
CIRCLE
  5
A24
330
A02
100
AcDbEntity
  8
View001
100
AcDbCircle
 10
179.07
 20
170.145
 40
1.5875
  0
CIRCLE
  5
A25
330
A02
100
AcDbEntity
  8
View001
100
AcDbCircle
 10
267.194
 20
190.77
 40
1.5875
  0
CIRCLE
  5
A26
330
A02
100
AcDbEntity
  8
View001
100
AcDbCircle
 10
273.544
 20
190.77
 40
1.5875
  0
LINE
  5
A27
330
A02
100
AcDbEntity
  8
View001
100
AcDbLine
 10
339.725
 20
87.5304
 30
0
 11
117.475
 21
87.5304
 31
0
  0
LINE
  5
A28
330
A02
100
AcDbEntity
  8
View001
100
AcDbLine
 10
117.475
 20
217.27
 30
0
 11
209.844
 21
217.27
 31
0
  0
LINE
  5
A29
330
A02
100
AcDbEntity
  8
View001
100
AcDbLine
 10
260.844
 20
217.27
 30
0
 11
339.725
 21
217.27
 31
0
  0
LINE
  5
A2A
330
A02
100
AcDbEntity
  8
View001
100
AcDbLine
 10
139.636
 20
179.67
 30
0
 11
130.874
 21
179.67
 31
0
  0
LINE
  5
A2B
330
A02
100
AcDbEntity
  8
View001
100
AcDbLine
 10
135.255
 20
184.051
 30
0
 11
135.255
 21
175.289
 31
0
  0
LINE
  5
A2C
330
A02
100
AcDbEntity
  8
View001
100
AcDbLine
 10
139.636
 20
163.16
 30
0
 11
130.874
 21
163.16
 31
0
  0
LINE
  5
A2D
330
A02
100
AcDbEntity
  8
View001
100
AcDbLine
 10
135.255
 20
167.541
 30
0
 11
135.255
 21
158.779
 31
0
  0
LINE
  5
A2E
330
A02
100
AcDbEntity
  8
View001
100
AcDbLine
 10
182.657
 20
195.545
 30
0
 11
169.133
 21
195.545
 31
0
  0
LINE
  5
A2F
330
A02
100
AcDbEntity
  8
View001
100
AcDbLine
 10
175.895
 20
202.308
 30
0
 11
175.895
 21
188.783
 31
0
  0
LINE
  5
A30
330
A02
100
AcDbEntity
  8
View001
100
AcDbLine
 10
176.307
 20
170.145
 30
0
 11
169.133
 21
170.145
 31
0
  0
LINE
  5
A31
330
A02
100
AcDbEntity
  8
View001
100
AcDbLine
 10
172.72
 20
173.733
 30
0
 11
172.72
 21
166.558
 31
0
  0
LINE
  5
A32
330
A02
100
AcDbEntity
  8
View001
100
AcDbLine
 10
182.657
 20
170.145
 30
0
 11
175.483
 21
170.145
 31
0
  0
LINE
  5
A33
330
A02
100
AcDbEntity
  8
View001
100
AcDbLine
 10
179.07
 20
173.733
 30
0
 11
179.07
 21
166.558
 31
0
  0
LINE
  5
A34
330
A02
100
AcDbEntity
  8
View001
100
AcDbLine
 10
182.657
 20
141.088
 30
0
 11
175.483
 21
141.088
 31
0
  0
LINE
  5
A35
330
A02
100
AcDbEntity
  8
View001
100
AcDbLine
 10
179.07
 20
144.675
 30
0
 11
179.07
 21
137.5
 31
0
  0
LINE
  5
A36
330
A02
100
AcDbEntity
  8
View001
100
AcDbLine
 10
176.307
 20
141.088
 30
0
 11
169.133
 21
141.088
 31
0
  0
LINE
  5
A37
330
A02
100
AcDbEntity
  8
View001
100
AcDbLine
 10
172.72
 20
144.675
 30
0
 11
172.72
 21
137.5
 31
0
  0
LINE
  5
A38
330
A02
100
AcDbEntity
  8
View001
100
AcDbLine
 10
176.307
 20
112.03
 30
0
 11
169.133
 21
112.03
 31
0
  0
LINE
  5
A39
330
A02
100
AcDbEntity
  8
View001
100
AcDbLine
 10
172.72
 20
115.617
 30
0
 11
172.72
 21
108.443
 31
0
  0
LINE
  5
A3A
330
A02
100
AcDbEntity
  8
View001
100
AcDbLine
 10
182.657
 20
112.03
 30
0
 11
175.483
 21
112.03
 31
0
  0
LINE
  5
A3B
330
A02
100
AcDbEntity
  8
View001
100
AcDbLine
 10
179.07
 20
115.617
 30
0
 11
179.07
 21
108.443
 31
0
  0
LINE
  5
A3C
330
A02
100
AcDbEntity
  8
View001
100
AcDbLine
 10
204.882
 20
105.68
 30
0
 11
197.708
 21
105.68
 31
0
  0
LINE
  5
A3D
330
A02
100
AcDbEntity
  8
View001
100
AcDbLine
 10
201.295
 20
109.267
 30
0
 11
201.295
 21
102.093
 31
0
  0
LINE
  5
A3E
330
A02
100
AcDbEntity
  8
View001
100
AcDbLine
 10
204.882
 20
99.33
 30
0
 11
197.708
 21
99.33
 31
0
  0
LINE
  5
A3F
330
A02
100
AcDbEntity
  8
View001
100
AcDbLine
 10
201.295
 20
102.917
 30
0
 11
201.295
 21
95.7425
 31
0
  0
LINE
  5
A40
330
A02
100
AcDbEntity
  8
View001
100
AcDbLine
 10
238.894
 20
192.42
 30
0
 11
231.294
 21
192.42
 31
0
  0
LINE
  5
A41
330
A02
100
AcDbEntity
  8
View001
100
AcDbLine
 10
235.094
 20
196.22
 30
0
 11
235.094
 21
188.62
 31
0
  0
LINE
  5
A42
330
A02
100
AcDbEntity
  8
View001
100
AcDbLine
 10
238.894
 20
153.32
 30
0
 11
231.294
 21
153.32
 31
0
  0
LINE
  5
A43
330
A02
100
AcDbEntity
  8
View001
100
AcDbLine
 10
235.094
 20
157.12
 30
0
 11
235.094
 21
149.52
 31
0
  0
LINE
  5
A44
330
A02
100
AcDbEntity
  8
View001
100
AcDbLine
 10
270.781
 20
152.67
 30
0
 11
263.607
 21
152.67
 31
0
  0
LINE
  5
A45
330
A02
100
AcDbEntity
  8
View001
100
AcDbLine
 10
267.194
 20
156.257
 30
0
 11
267.194
 21
149.083
 31
0
  0
LINE
  5
A46
330
A02
100
AcDbEntity
  8
View001
100
AcDbLine
 10
277.131
 20
152.67
 30
0
 11
269.957
 21
152.67
 31
0
  0
LINE
  5
A47
330
A02
100
AcDbEntity
  8
View001
100
AcDbLine
 10
273.544
 20
156.257
 30
0
 11
273.544
 21
149.083
 31
0
  0
LINE
  5
A48
330
A02
100
AcDbEntity
  8
View001
100
AcDbLine
 10
270.781
 20
190.77
 30
0
 11
263.607
 21
190.77
 31
0
  0
LINE
  5
A49
330
A02
100
AcDbEntity
  8
View001
100
AcDbLine
 10
267.194
 20
194.357
 30
0
 11
267.194
 21
187.183
 31
0
  0
LINE
  5
A4A
330
A02
100
AcDbEntity
  8
View001
100
AcDbLine
 10
277.131
 20
190.77
 30
0
 11
269.957
 21
190.77
 31
0
  0
LINE
  5
A4B
330
A02
100
AcDbEntity
  8
View001
100
AcDbLine
 10
273.544
 20
194.357
 30
0
 11
273.544
 21
187.183
 31
0
  0
LINE
  5
A4C
330
A02
100
AcDbEntity
  8
View001
100
AcDbLine
 10
330.612
 20
184.42
 30
0
 11
323.438
 21
184.42
 31
0
  0
LINE
  5
A4D
330
A02
100
AcDbEntity
  8
View001
100
AcDbLine
 10
327.025
 20
188.007
 30
0
 11
327.025
 21
180.833
 31
0
  0
LINE
  5
A4E
330
A02
100
AcDbEntity
  8
View001
100
AcDbLine
 10
336.962
 20
184.42
 30
0
 11
329.788
 21
184.42
 31
0
  0
LINE
  5
A4F
330
A02
100
AcDbEntity
  8
View001
100
AcDbLine
 10
333.375
 20
188.007
 30
0
 11
333.375
 21
180.833
 31
0
  0
LINE
  5
A50
330
A02
100
AcDbEntity
  8
View001
100
AcDbLine
 10
320.897
 20
125.111
 30
0
 11
294.672
 21
125.111
 31
0
  0
LINE
  5
A51
330
A02
100
AcDbEntity
  8
View001
100
AcDbLine
 10
307.784
 20
138.224
 30
0
 11
307.784
 21
111.998
 31
0
  0
LINE
  5
A52
330
A02
100
AcDbEntity
  8
View001
100
AcDbLine
 10
277.131
 20
114.57
 30
0
 11
269.957
 21
114.57
 31
0
  0
LINE
  5
A53
330
A02
100
AcDbEntity
  8
View001
100
AcDbLine
 10
273.544
 20
118.157
 30
0
 11
273.544
 21
110.983
 31
0
  0
LINE
  5
A54
330
A02
100
AcDbEntity
  8
View001
100
AcDbLine
 10
270.781
 20
114.57
 30
0
 11
263.607
 21
114.57
 31
0
  0
LINE
  5
A55
330
A02
100
AcDbEntity
  8
View001
100
AcDbLine
 10
267.194
 20
118.157
 30
0
 11
267.194
 21
110.983
 31
0
  0
LINE
  5
A56
330
A02
100
AcDbEntity
  8
View001
100
AcDbLine
 10
277.131
 20
99.33
 30
0
 11
263.607
 21
99.33
 31
0
  0
LINE
  5
A57
330
A02
100
AcDbEntity
  8
View001
100
AcDbLine
 10
270.369
 20
106.092
 30
0
 11
270.369
 21
92.5675
 31
0
  0
DIMENSION
  5
A58
330
A02
100
AcDbEntity
  8
Dimension
100
AcDbDimension
  2
*Dimension
 10
180.237
 20
197.502
 30
0
 11
190.945
 21
207.946
 31
0
 70
3
  1
⌀0.375 in
  3
STANDARD
100
AcDbDiametricDimension
 15
171.553
 25
193.589
 35
0
 40
0
  0
DIMENSION
  5
A60
330
A02
100
AcDbEntity
  8
Dimension001
100
AcDbDimension
  2
*Dimension001
 10
136.972
 20
181.32
 30
0
 11
146.842
 21
197.336
 31
0
 70
3
  1
⌀0.1875 in
  3
STANDARD
100
AcDbDiametricDimension
 15
133.538
 25
178.02
 35
0
 40
0
  0
DIMENSION
  5
A68
330
A02
100
AcDbEntity
  8
Dimension002
100
AcDbDimension
  2
*Dimension002
 10
180.37
 20
171.056
 30
0
 11
189.697
 21
183.605
 31
0
 70
3
  1
⌀0.125 in
  3
STANDARD
100
AcDbDiametricDimension
 15
177.77
 25
169.234
 35
0
 40
0
  0
DIMENSION
  5
A70
330
A02
100
AcDbEntity
  8
Dimension004
100
AcDbDimension
  2
*Dimension004
 10
236.59
 20
191.419
 30
0
 11
248.447
 21
189.351
 31
0
 70
3
  1
⌀0.1417 in
  3
STANDARD
100
AcDbDiametricDimension
 15
233.598
 25
193.421
 35
0
 40
0
  0
DIMENSION
  5
A78
330
A02
100
AcDbEntity
  8
Dimension005
100
AcDbDimension
  2
*Dimension005
 10
265.607
 20
99.2665
 30
0
 11
248.988
 21
104.344
 31
0
 70
3
  1
⌀0.375 in
  3
STANDARD
100
AcDbDiametricDimension
 15
275.131
 25
99.3935
 35
0
 40
0
  0
DIMENSION
  5
A80
330
A02
100
AcDbEntity
  8
Dimension006
100
AcDbDimension
  2
*Dimension006
 10
296.983
 20
127.722
 30
0
 11
279.038
 21
137.429
 31
0
 70
3
  1
⌀0.875 in
  3
STANDARD
100
AcDbDiametricDimension
 15
318.586
 25
122.5
 35
0
 40
0
  0
ENDSEC
  0
SECTION
  2
OBJECTS
  0
DICTIONARY
  5
F000
330
0
100
AcDbDictionary
  3
ACAD_GROUP
350
F001
  0
DICTIONARY
  5
F001
330
F000
100
AcDbDictionary
  0
ENDSEC
  0
EOF